<svg width="601" height="407" viewBox="0 0 601 407" fill="none" xmlns="http://www.w3.org/2000/svg">
<g clip-path="url(#clip0_1639_23759)">
<path d="M549.827 322.117H370.223C370.223 322.117 283.447 320.1 278.527 333.899H36.8392C-8.83866 245.271 88.5883 203.648 88.4627 178.552C88.4627 178.381 88.4627 178.21 88.4627 178.038C88.4627 116.711 143.741 67.0022 211.922 67.0022C219.07 67.0022 226.074 67.5487 232.888 68.5963C253.999 71.8453 275.466 66.5793 292.718 53.4705C308.886 41.1859 328.477 33.9961 349.588 33.9961C389.099 33.9961 423.291 59.1855 439.712 95.8245C450.694 120.326 472.186 137.853 497.647 142.907C540.731 151.459 575.771 181.144 586.513 223.862C595.076 257.94 577.055 305.478 549.825 322.119L549.827 322.117Z" fill="#335B96"/>
<path d="M238.401 55.4746C236.361 51.4774 240.744 47.838 244.596 45.8686C248.755 43.7409 267.066 43.2096 269.13 48.7489C270.886 53.4619 267.043 59.2528 260.545 61.682C254.333 64.0048 244.894 61.9986 240.051 57.5567C239.289 56.8584 238.749 56.1622 238.401 55.4768V55.4746Z" fill="#335B96"/>
<path d="M7.43272 187.887C2.95934 178.745 11.2197 171.107 18.6097 167.14C26.5929 162.854 62.7112 163.7 67.4033 176.288C71.3938 186.998 64.4412 199.491 51.872 204.191C39.855 208.685 20.9849 203.161 10.9252 192.711C9.34246 191.067 8.20138 189.453 7.43489 187.887H7.43272Z" fill="#335B96"/>
<path d="M312.218 372.96C304.237 356.624 318.898 343.017 332.026 335.957C346.208 328.331 410.427 329.953 418.806 352.445C425.936 371.579 413.612 393.857 391.28 402.21C369.926 410.193 336.358 400.273 318.441 381.586C315.62 378.645 313.587 375.762 312.218 372.962V372.96Z" fill="#335B96"/>
</g>
<g clip-path="url(#clip1_1639_23759)">
<path d="M204.912 59.1056L197.127 45.662C200.007 41.1524 201.68 35.8036 201.68 30.0579C201.68 14.0166 188.674 1.01025 172.627 1.01025C156.58 1.01025 143.574 14.0141 143.574 30.0579C143.574 46.1017 156.58 59.1056 172.627 59.1056C179.462 59.1056 185.739 56.7389 190.702 52.792L204.912 59.1056Z" fill="white"/>
<path d="M206.122 60.1934L190.777 53.3749C185.545 57.455 179.276 59.6081 172.629 59.6081C156.331 59.6081 143.074 46.353 143.074 30.0579C143.074 13.7629 156.331 0.507812 172.629 0.507812C188.927 0.507812 202.185 13.7629 202.185 30.0579C202.185 35.5951 200.64 40.9866 197.715 45.6746L206.122 60.1934ZM172.629 1.51275C156.887 1.51275 144.079 14.3181 144.079 30.0579C144.079 45.7977 156.887 58.6031 172.629 58.6031C179.148 58.6031 185.289 56.4576 190.39 52.3976L190.629 52.2067L203.7 58.0152L196.539 45.647L196.702 45.3882C199.629 40.8032 201.177 35.4997 201.177 30.0529C201.177 14.3131 188.37 1.50772 172.627 1.50772L172.629 1.51275Z" fill="#102048"/>
<path d="M157.51 34.8188C159.592 34.8188 161.279 33.1315 161.279 31.0502C161.279 28.969 159.592 27.2817 157.51 27.2817C155.428 27.2817 153.741 28.969 153.741 31.0502C153.741 33.1315 155.428 34.8188 157.51 34.8188Z" fill="#708CD5"/>
<path d="M172.587 34.8188C174.668 34.8188 176.356 33.1315 176.356 31.0502C176.356 28.969 174.668 27.2817 172.587 27.2817C170.505 27.2817 168.817 28.969 168.817 31.0502C168.817 33.1315 170.505 34.8188 172.587 34.8188Z" fill="#708CD5"/>
<path d="M187.664 34.8188C189.745 34.8188 191.433 33.1315 191.433 31.0502C191.433 28.969 189.745 27.2817 187.664 27.2817C185.582 27.2817 183.895 28.969 183.895 31.0502C183.895 33.1315 185.582 34.8188 187.664 34.8188Z" fill="#708CD5"/>
<path d="M365.231 89.2209H131.196V228.487H365.231V89.2209Z" fill="white"/>
<path d="M365.231 88.7336H131.196V118.427H365.231V88.7336Z" fill="#C6EAE9"/>
<path d="M365.716 228.972H130.708V88.7336H365.716V228.972ZM131.681 228.003H364.746V89.7059H131.681V228.003Z" fill="#102048"/>
<path d="M149.597 110.92C145.549 110.92 142.257 107.629 142.257 103.581C142.257 99.5341 145.549 96.2429 149.597 96.2429C153.645 96.2429 156.937 99.5341 156.937 103.581C156.937 107.629 153.645 110.92 149.597 110.92ZM149.597 97.2479C146.104 97.2479 143.262 100.089 143.262 103.581C143.262 107.074 146.104 109.915 149.597 109.915C153.09 109.915 155.932 107.074 155.932 103.581C155.932 100.089 153.09 97.2479 149.597 97.2479Z" fill="#102048"/>
<path d="M395.27 96.6784C409.27 82.6807 409.27 59.9858 395.27 45.988C381.27 31.9903 358.57 31.9903 344.57 45.988C330.57 59.9858 330.57 82.6807 344.57 96.6784C358.57 110.676 381.27 110.676 395.27 96.6784Z" fill="white"/>
<path d="M369.92 107.677C349.875 107.677 333.567 91.3715 333.567 71.3306C333.567 51.2897 349.875 34.9846 369.92 34.9846C389.965 34.9846 406.273 51.2897 406.273 71.3306C406.273 91.3715 389.965 107.677 369.92 107.677ZM369.92 35.9921C350.431 35.9921 334.573 51.8449 334.573 71.3331C334.573 90.8213 350.428 106.674 369.92 106.674C389.412 106.674 405.268 90.8213 405.268 71.3331C405.268 51.8449 389.412 35.9921 369.92 35.9921Z" fill="#102048"/>
<path d="M369.694 72.0466L354.979 56.435L355.71 55.7466L369.93 70.8307L383.487 64.5523L383.909 65.4643L369.694 72.0466Z" fill="#102048"/>
<path d="M371.259 96.7908H369.249V102.318H371.259V96.7908Z" fill="#102048"/>
<path d="M371.259 41.6875H369.249V47.2146H371.259V41.6875Z" fill="#102048"/>
<path d="M400.157 70.3284H394.628V72.3382H400.157V70.3284Z" fill="#102048"/>
<path d="M345.209 70.3284H339.681V72.3382H345.209V70.3284Z" fill="#102048"/>
<path d="M288.839 112.432L265.892 110.593L242.433 109.257L227.607 107.8L227.527 98.916C227.527 98.916 224.612 103.75 222.531 107.297L215.134 106.574C209.264 98.5341 211.947 93.007 217.978 89.8214C224.159 86.5654 214.46 74.7473 224.009 69.7227C224.009 69.7227 231.768 66.8686 233.889 62.5273C237.407 55.3219 243.779 40.0771 262.535 48.9607C263.085 49.222 265.121 48.5964 265.754 48.5637C268.292 48.4381 270.868 48.6944 273.305 49.4305C276.504 50.3978 279.376 52.2167 281.559 54.7567C285.409 59.2362 285.128 65.625 289.231 69.9287C291.181 71.9737 293.405 74.1996 294.722 76.7245C296.641 80.4101 294.727 84.2917 294.088 88.0301C293.262 92.8663 296.29 96.5142 296.707 101.187C297.199 106.717 293.819 110.48 288.842 112.43L288.839 112.432Z" fill="#102048"/>
<path d="M236.191 125.165C239.337 116.372 241.036 104.795 239.84 89.9922L267.611 99.7903C267.671 100.182 267.732 100.574 267.792 100.966C268.636 106.242 270.003 111.95 271.822 117.105C273.119 120.773 274.647 124.17 276.396 126.924L236.191 125.165Z" fill="#F9B384"/>
<path d="M271.823 117.105C262.977 113.518 255.489 107.82 249.388 99.9209L267.792 100.966C268.636 106.242 270.003 111.95 271.823 117.105Z" fill="#E28B6D"/>
<path d="M277.521 85.681C278.235 88.9069 278.499 92.2382 277.521 95.1073C274.182 104.913 268.568 108.85 259.608 106.169C255.71 105.003 250.614 102.705 247.659 99.9109C243.94 96.3836 240.462 91.2785 237.075 85.47L239.759 63.6931L264.384 56.8293L279.964 62.5273L280.798 70.8984L276.104 81.2794C276.717 82.7064 277.19 84.1937 277.521 85.681Z" fill="#F9B384"/>
<path d="M280.421 77.4305C278.662 69.0142 265.767 62.6404 257.806 64.492C253.283 77.5561 243.609 82.9577 234.562 78.6038L234.731 70.8984L238.583 60.1783L252.989 54.4828L269.071 53.3096L279.122 58.8367L283.311 66.5421L280.421 77.428V77.4305Z" fill="#102048"/>
<path d="M267.541 82.4301C267.591 83.3923 267.782 84.3294 268.149 85.2238C268.531 86.1533 269.096 86.8995 269.682 87.706C270.149 88.3466 270.72 89.2511 270.157 90.0048C269.707 90.6102 268.848 90.8564 268.154 91.0248C267.526 91.178 267.792 92.1478 268.42 91.9945C269.993 91.6127 271.775 90.6127 271.32 88.7134C271.061 87.6381 270.217 86.8643 269.647 85.9574C268.978 84.8947 268.611 83.6837 268.546 82.4301C268.513 81.7869 267.506 81.7819 267.541 82.4301Z" fill="#102048"/>
<path d="M261.43 84.6535C262.332 84.6535 263.063 83.5568 263.063 82.2039C263.063 80.8511 262.332 79.7544 261.43 79.7544C260.528 79.7544 259.796 80.8511 259.796 82.2039C259.796 83.5568 260.528 84.6535 261.43 84.6535Z" fill="#102048"/>
<path d="M274.531 82.684C274.418 83.9326 273.652 84.8848 272.82 84.8094C271.986 84.734 271.403 83.6613 271.516 82.4101C271.629 81.1615 272.395 80.2093 273.227 80.2847C274.061 80.3601 274.644 81.4328 274.531 82.684Z" fill="#102048"/>
<path d="M268.46 96.6978C267.96 96.6978 267.43 96.6375 266.887 96.5169C264.839 96.0571 263.133 94.8562 262.322 93.3036C262.193 93.0574 262.289 92.7534 262.535 92.6253C262.781 92.4971 263.085 92.5926 263.214 92.8388C263.89 94.1327 265.344 95.1426 267.108 95.5371C268.443 95.836 269.697 95.7004 270.38 95.1828C270.601 95.0145 270.915 95.0572 271.084 95.2783C271.252 95.4994 271.209 95.8134 270.988 95.9818C270.368 96.4516 269.476 96.6978 268.463 96.6978H268.46Z" fill="#102048"/>
<path d="M263.895 76.2425C264.036 76.8354 262.141 77.2374 259.872 77.4911C257.6 77.7449 255.766 78.0137 255.671 77.162C255.575 76.3103 257.424 76.1671 259.694 75.9134C261.965 75.6597 263.679 75.3431 263.895 76.2425Z" fill="#102048"/>
<path d="M268.714 75.9383C268.596 76.5337 270.287 76.9683 272.313 77.2572C274.338 77.5462 275.974 77.8426 276.047 76.9809C276.12 76.1192 274.474 75.9508 272.448 75.6619C270.423 75.373 268.893 75.0288 268.714 75.9383Z" fill="#102048"/>
<path opacity="0.4" d="M258.178 92.9662C260.228 91.1776 260.441 88.0654 258.652 86.015C256.863 83.9646 253.75 83.7524 251.699 85.5411C249.648 87.3298 249.436 90.442 251.225 92.4924C253.014 94.5428 256.127 94.7549 258.178 92.9662Z" fill="#FC8879"/>
<path opacity="0.4" d="M277.522 95.1074C275.491 94.5045 274.014 92.6253 274.014 90.3943C274.014 88.1633 275.491 86.2841 277.522 85.6812C278.235 88.907 278.275 92.173 277.522 95.1074Z" fill="#FC8879"/>
<path d="M231.562 80.6588C231.022 82.1512 231.002 83.842 231.748 85.4574C233.319 88.8541 237.616 90.5951 241.199 90.0298C244.807 89.4621 243.556 87.9446 244.405 84.666C245.255 81.3874 243.644 78.6012 240.453 76.8828C236.741 74.8855 232.796 77.2496 231.562 80.6588Z" fill="#F9B384"/>
<path d="M240.857 86.1434C240.581 82.8573 237.879 80.3475 234.56 80.3902C233.914 80.3977 233.912 81.4027 234.56 81.3951C237.299 81.3574 239.621 83.3949 239.852 86.1434C239.905 86.7841 240.912 86.7891 240.857 86.1434Z" fill="#102048"/>
<path d="M199.383 228.844L201.725 206.394L200.72 202.746L199.886 199.701L170.848 185.893L182.025 151.866C185.342 141.736 193.382 133.858 203.574 130.742L230.039 122.653L234.472 116.744C235.186 115.789 236.07 115.015 237.075 114.432C238.955 113.337 241.236 113.136 243.357 113.638C251.408 115.538 259.298 116.894 266.284 114.895C269.711 113.91 273.511 114.925 275.541 117.859C275.682 118.06 275.813 118.281 275.943 118.492L280.175 125.919L289 129.989C300.609 132.632 309.404 142.149 311.112 153.936L322.008 228.844H199.383Z" fill="#EE6F57"/>
<path d="M227.858 190.988C227.858 190.988 219.154 219.8 199.383 228.844L201.725 206.394L200.72 202.746L227.858 190.988Z" fill="#6F3428"/>
<path d="M261.555 169.046C262.231 170.063 263.51 172.352 262.535 174.005C262.374 174.286 262.148 174.543 261.849 174.766C261.849 174.766 261.156 178.042 258.384 179.688C247.044 186.428 235 182.557 235 182.557L229.989 167.239L237.92 156.79L246.25 145.266C246.25 145.266 249.162 145.002 249.479 148.394C249.793 151.776 243.727 160.375 243.727 160.375C246.388 159.082 252.378 156.833 256.374 157.16C258.007 157.293 258.736 158.552 259.218 161.24C259.251 161.448 259.294 161.667 259.329 161.895C259.329 161.895 259.542 161.993 259.856 162.192C260.942 162.873 263.188 164.682 261.93 167.345C261.749 167.719 261.507 168.108 261.176 168.518C261.176 168.518 261.329 168.714 261.555 169.043V169.046Z" fill="#F9B384"/>
<path d="M253.411 164.084C255.464 163.589 257.519 163.097 259.572 162.602C260.201 162.451 259.934 161.481 259.306 161.632C257.253 162.127 255.198 162.619 253.145 163.114C252.516 163.265 252.783 164.235 253.411 164.084Z" fill="#E28B6D"/>
<path d="M254.924 170.51C257.143 170.091 259.364 169.674 261.583 169.254C262.219 169.134 261.95 168.166 261.317 168.284C259.098 168.704 256.876 169.121 254.658 169.541C254.022 169.661 254.291 170.628 254.924 170.51Z" fill="#E28B6D"/>
<path d="M256.688 176.276C258.404 176.065 260.121 175.852 261.839 175.641C262.473 175.563 262.48 174.555 261.839 174.636C260.123 174.847 258.407 175.06 256.688 175.271C256.055 175.349 256.047 176.357 256.688 176.276Z" fill="#E28B6D"/>
<path d="M237.226 189.973L227.858 190.988C227.858 190.988 204.077 216.112 188.327 215.438C184.357 215.277 180.969 214.272 178.115 212.876C170.084 208.946 166.375 199.53 169.159 191.038L170.848 185.893C184.457 176.306 202.298 169.523 219.817 165.191L227.195 160.277C228.542 159.383 230.381 160.006 230.884 161.544L239.297 186.757C239.789 188.245 238.784 189.802 237.226 189.973Z" fill="#EE6F57"/>
<path d="M229.986 123.401C231.454 124.53 232.921 125.658 234.389 126.786C234.901 127.18 235.402 126.308 234.896 125.919C233.429 124.791 231.961 123.663 230.494 122.535C229.981 122.14 229.481 123.012 229.986 123.401Z" fill="#6F3428"/>
<path d="M273.637 128.916C276.087 129.052 278.494 128.082 280.173 126.296C280.615 125.823 279.906 125.112 279.461 125.585C277.951 127.193 275.84 128.034 273.637 127.911C272.991 127.876 272.993 128.881 273.637 128.916Z" fill="#6F3428"/>
<path d="M240.779 120.359C239.402 122.66 238.794 125.346 239.071 128.014C239.136 128.652 240.144 128.657 240.076 128.014C239.817 125.509 240.352 123.03 241.649 120.866C241.983 120.311 241.114 119.804 240.782 120.359H240.779Z" fill="#6F3428"/>
<path d="M245.795 121.175C245.023 123.866 244.858 126.655 245.272 129.418C245.368 130.057 246.335 129.785 246.242 129.152C245.855 126.572 246.046 123.949 246.765 121.442C246.943 120.819 245.973 120.552 245.795 121.175Z" fill="#6F3428"/>
<path d="M253.637 121.824C253.301 124.446 253.434 127.092 254.017 129.672C254.16 130.303 255.128 130.036 254.987 129.406C254.424 126.911 254.318 124.359 254.645 121.824C254.728 121.183 253.72 121.191 253.64 121.824H253.637Z" fill="#6F3428"/>
<path d="M261.678 121.854C262.241 124.507 261.849 127.278 260.58 129.675C260.279 130.245 261.146 130.755 261.447 130.182C262.847 127.537 263.267 124.514 262.646 121.587C262.513 120.954 261.543 121.223 261.676 121.854H261.678Z" fill="#6F3428"/>
<path d="M269.365 122.401C269.302 124.818 268.448 127.157 266.912 129.029C266.505 129.524 267.211 130.24 267.623 129.74C269.335 127.655 270.302 125.102 270.372 122.401C270.39 121.756 269.385 121.756 269.367 122.401H269.365Z" fill="#6F3428"/>
<path d="M219.968 165.342C222.358 162.971 225.373 161.358 228.668 160.669C229.301 160.536 229.032 159.569 228.401 159.7C224.944 160.423 221.762 162.144 219.257 164.631C218.797 165.089 219.508 165.797 219.968 165.342Z" fill="#6F3428"/>
<path d="M230.216 161.792C233.583 168.847 236.118 176.278 237.789 183.913C237.927 184.544 238.897 184.278 238.759 183.647C237.071 175.924 234.487 168.42 231.085 161.285C230.806 160.702 229.939 161.209 230.218 161.792H230.216Z" fill="#6F3428"/>
<path d="M229.522 191.239C232.098 190.77 234.671 190.297 237.247 189.827C237.882 189.712 237.613 188.742 236.98 188.858C234.405 189.327 231.831 189.8 229.256 190.27C228.62 190.385 228.889 191.355 229.522 191.239Z" fill="#6F3428"/>
<path d="M222.036 169.533C224.107 168.649 226.175 167.764 228.245 166.88C228.838 166.626 228.326 165.759 227.738 166.013C225.667 166.897 223.599 167.782 221.529 168.666C220.936 168.92 221.448 169.787 222.036 169.533Z" fill="#6F3428"/>
<path d="M224.949 174.477C226.456 173.864 227.964 173.251 229.474 172.638C230.065 172.397 229.806 171.425 229.208 171.669C227.7 172.282 226.192 172.895 224.682 173.508C224.092 173.749 224.351 174.721 224.949 174.477Z" fill="#6F3428"/>
<path d="M228.544 180.547C230.107 179.989 231.67 179.429 233.233 178.871C233.839 178.655 233.577 177.683 232.967 177.901C231.404 178.459 229.841 179.019 228.278 179.577C227.672 179.793 227.934 180.765 228.544 180.547Z" fill="#6F3428"/>
<path d="M229.899 185.655C231.429 184.192 233.296 183.2 235.359 182.735C235.99 182.592 235.724 181.625 235.093 181.765C232.867 182.268 230.836 183.368 229.188 184.944C228.721 185.391 229.432 186.102 229.899 185.655Z" fill="#6F3428"/>
<path d="M190.209 175.256C196.629 171.786 203.57 169.367 210.751 168.078C211.387 167.965 211.118 166.995 210.485 167.109C203.22 168.412 196.195 170.88 189.702 174.387C189.131 174.693 189.639 175.563 190.209 175.254V175.256Z" fill="#6F3428"/>
<path d="M208.314 153.311C207.648 158.293 206.96 163.27 206.294 168.252C206.208 168.89 207.213 168.885 207.299 168.252C207.965 163.27 208.653 158.293 209.319 153.311C209.405 152.673 208.399 152.678 208.314 153.311Z" fill="#6F3428"/>
<path d="M298.431 162.302C299.69 177.994 300.949 193.689 302.205 209.381C302.559 213.805 302.914 218.23 303.27 222.654C303.321 223.294 304.328 223.299 304.275 222.654C303.017 206.962 301.758 191.267 300.501 175.575C300.147 171.151 299.793 166.727 299.436 162.302C299.386 161.662 298.378 161.657 298.431 162.302Z" fill="#6F3428"/>
<path d="M299.212 159.443C300.818 155.705 301.579 151.675 301.406 147.61C301.378 146.967 300.373 146.962 300.401 147.61C300.566 151.489 299.878 155.366 298.345 158.938C298.094 159.526 298.958 160.039 299.212 159.446V159.443Z" fill="#6F3428"/>
<path d="M300.895 157.489C301.893 156.255 302.89 155.022 303.888 153.786C304.29 153.288 303.584 152.572 303.177 153.075C302.179 154.308 301.182 155.542 300.184 156.778C299.782 157.275 300.488 157.991 300.895 157.489Z" fill="#6F3428"/>
<path d="M262.239 213.775C271.675 210.753 279.778 204.027 284.643 195.41C286.03 192.953 287.143 190.345 287.96 187.647C288.149 187.026 287.179 186.763 286.99 187.381C284.196 196.618 277.756 204.598 269.443 209.469C267.081 210.853 264.578 211.971 261.973 212.808C261.36 213.004 261.621 213.976 262.239 213.778V213.775Z" fill="#6F3428"/>
<path d="M263.066 207.929C265.769 205.221 267.847 201.977 269.199 198.4C269.428 197.794 268.458 197.533 268.229 198.133C266.94 201.545 264.93 204.64 262.354 207.22C261.897 207.678 262.608 208.389 263.066 207.931V207.929Z" fill="#6F3428"/>
<path d="M239.447 90.4044C240.807 93.7986 242.958 96.8084 245.762 99.1599C246.255 99.5719 246.968 98.866 246.473 98.4489C243.807 96.2155 241.711 93.369 240.415 90.1381C240.176 89.5452 239.204 89.804 239.445 90.4044H239.447Z" fill="#E28B6D"/>
<path d="M307.929 257.512H64.001V412.42H307.929V257.512Z" fill="white"/>
<path d="M307.929 257.512H64.001V284.354H307.929V257.512Z" fill="#C6EAE9"/>
<path d="M308.432 412.923H63.4985V257.01H308.432V412.923ZM64.5037 411.918H307.426V258.015H64.5037V411.918Z" fill="#102048"/>
<path d="M287.839 277.639C283.956 277.639 280.798 274.481 280.798 270.596C280.798 266.712 283.956 263.557 287.839 263.557C291.721 263.557 294.88 266.715 294.88 270.596C294.88 274.478 291.721 277.639 287.839 277.639ZM287.839 264.562C284.509 264.562 281.803 267.27 281.803 270.596C281.803 273.923 284.512 276.634 287.839 276.634C291.166 276.634 293.874 273.925 293.874 270.596C293.874 267.268 291.166 264.562 287.839 264.562Z" fill="#102048"/>
<path d="M178.276 338.646H70.7275V412.677H178.276V338.646Z" fill="#1F3C88"/>
<path d="M116.531 294.195L162.355 295.208C160.302 292.188 158.38 288.743 156.618 284.611C154.432 279.458 152.515 273.225 151.03 265.371L135.847 260.63L118.949 255.342C120.733 268.946 118.589 289.397 116.531 294.193V294.195Z" fill="#F9B384"/>
<path d="M135.701 268.464C135.701 268.464 142.707 278.767 155.972 282.844C153.786 277.691 152.512 273.224 151.029 265.371L135.847 260.63L135.701 268.461V268.464Z" fill="#E28B6D"/>
<path d="M160.958 256.425C160.204 264.213 154.344 272.081 145.127 271.921C141.187 271.84 136.252 270.715 133.046 268.303L119.647 258.173L114.823 236.406L135.458 217.363L154.827 227.101C154.827 227.101 155.832 242.667 155.832 242.677C155.872 243.32 157.189 244.617 158.485 246.606C159.681 248.405 160.847 250.777 161.018 253.731C161.068 254.616 161.048 255.52 160.958 256.425Z" fill="#F9B384"/>
<path d="M145.878 243.079C146.067 244.355 146.622 245.488 147.444 246.476C148.318 247.528 149.436 248.345 150.326 249.387C151.072 250.262 151.987 251.561 151.158 252.671C150.467 253.596 149.178 254 148.115 254.287C147.492 254.455 147.755 255.425 148.381 255.256C150.655 254.646 153.444 253.081 152.16 250.32C151.474 248.842 150.148 247.747 148.992 246.647C147.874 245.581 147.077 244.365 146.848 242.815C146.755 242.177 145.785 242.448 145.878 243.082V243.079Z" fill="#102048"/>
<path d="M148.956 258.274C146.652 258.522 144.365 257.724 142.767 256.033C142.322 255.563 141.611 256.274 142.056 256.744C143.817 258.608 146.406 259.553 148.956 259.279C149.592 259.211 149.599 258.203 148.956 258.274Z" fill="#102048"/>
<path d="M138.335 244.149C138.521 245.308 139.358 246.142 140.199 246.011C141.041 245.883 141.574 244.838 141.388 243.68C141.202 242.521 140.365 241.687 139.523 241.818C138.682 241.946 138.149 242.991 138.335 244.149Z" fill="#102048"/>
<path d="M149.602 243.584C149.891 244.684 150.775 245.413 151.575 245.212C152.374 245.011 152.791 243.958 152.502 242.858C152.213 241.757 151.328 241.029 150.529 241.23C149.73 241.431 149.313 242.484 149.602 243.584Z" fill="#102048"/>
<path d="M147.574 238.115C147.542 238.529 148.891 238.964 150.59 239.09C152.286 239.213 153.565 239.414 153.721 238.567C153.904 237.567 152.404 237.718 150.705 237.592C149.009 237.469 147.607 237.703 147.574 238.115Z" fill="#102048"/>
<path d="M142.018 238.29C142.116 238.72 140.767 239.383 139 239.77C137.234 240.157 135.922 240.559 135.623 239.692C135.271 238.667 136.874 238.599 138.641 238.213C140.407 237.826 141.92 237.861 142.018 238.29Z" fill="#102048"/>
<path opacity="0.4" d="M134.015 258.349C136.914 258.349 139.265 256.058 139.265 253.231C139.265 250.405 136.914 248.114 134.015 248.114C131.116 248.114 128.766 250.405 128.766 253.231C128.766 256.058 131.116 258.349 134.015 258.349Z" fill="#FC8879"/>
<path opacity="0.4" d="M160.957 256.424C160.555 256.465 160.143 256.445 159.731 256.384C156.866 255.962 154.896 253.359 155.329 250.556C155.61 248.727 156.856 247.28 158.485 246.606C159.681 248.405 160.847 250.777 161.017 253.731C161.068 254.616 161.048 255.52 160.957 256.424Z" fill="#FC8879"/>
<path d="M120.23 249.29C118.974 239.491 121.17 233.261 129.025 228.605C148.961 236.509 161.953 233.924 164.372 215.373C157.688 217.983 152.324 218.473 144.531 214.094C143.677 213.614 122.866 200.465 115.074 222.614C115.074 222.614 102.17 228.455 112.395 246.953L120.227 249.292L120.23 249.29Z" fill="#102048"/>
<path d="M169.079 292.672L193.137 301.717C208.842 307.621 217.576 324.408 213.395 340.656L205.163 372.645H57.6614L56.6562 357.822L61.4155 329.408C63.7625 315.404 73.3111 303.669 86.5486 298.526L104.018 291.738L137.77 288.944L169.079 292.672Z" fill="#1F3C88"/>
<path d="M107.287 412.87H55.523L32.9077 347.886H84.6715L107.287 412.87Z" fill="#D3DFFF"/>
<path opacity="0.6" d="M86.3198 372.103H49.1655L43.8232 357.451H80.9751L86.3198 372.103Z" fill="#708CD5"/>
<path opacity="0.6" d="M89.0005 380.31H51.8462L50.522 376.713H87.6763L89.0005 380.31Z" fill="#708CD5"/>
<path opacity="0.6" d="M91.3452 387.345H54.1909L52.8691 383.747H90.021L91.3452 387.345Z" fill="#708CD5"/>
<path opacity="0.3" d="M93.6894 394.379H56.5351L55.2134 390.782H92.3677L93.6894 394.379Z" fill="#708CD5"/>
<path opacity="0.3" d="M96.0367 401.414H58.8824L57.5581 397.816H94.7124L96.0367 401.414Z" fill="#708CD5"/>
<path opacity="0.3" d="M98.3808 408.448H61.2265L59.9048 404.851H97.0566L98.3808 408.448Z" fill="#708CD5"/>
<path d="M137.77 288.934V288.944L127.648 304.139C119.084 301.827 111.174 297.787 104.018 291.738L118.29 284.251C124.552 287.849 131.287 289.276 137.76 288.924L137.77 288.934Z" fill="#D3DFFF"/>
<path d="M169.079 292.673C163.219 298.32 155.811 302.069 146.845 303.908L137.769 288.944V288.934L137.779 288.924C144.363 288.582 150.675 286.412 155.972 282.844L169.079 292.673Z" fill="#D3DFFF"/>
<path d="M181.794 330.94C173.753 337.221 158.927 368.374 158.927 368.374C158.927 368.374 110.933 374.404 100.881 384.453L103.897 396.512L155.912 393.749L182.799 384.202L193.604 350.788L181.794 330.94Z" fill="#102048"/>
<path d="M96.9437 383.868C92.5061 383.33 80.0978 379.052 77.3061 377.675C76.6628 377.358 76.1452 377.404 75.7381 377.617C74.7079 378.155 74.6174 379.607 75.4517 380.323C78.1454 382.637 82.8217 384.697 87.679 386.732C80.4823 386.863 69.632 381.886 68.3379 385.064C68.0364 385.807 68.4234 386.644 69.0893 387.091C73.5419 390.078 86.2492 391.983 86.2492 391.983L86.0356 392.92C78.7736 393.377 66.3528 390.174 67.5791 393.746C69.8406 397.784 85.4225 397.62 85.4225 397.62L85.6084 398.774C80.0602 398.949 74.0847 398.555 74.1626 401.082C74.2229 403.08 88.6514 404.132 88.6514 404.132C98.5845 409.355 107.99 405.014 107.99 405.014L112.38 390.681L104.816 381.109L96.8583 370.537C96.8583 370.537 94.1444 370.346 93.9107 373.504C93.677 376.662 96.9462 383.87 96.9462 383.87L96.9437 383.868Z" fill="#F9B384"/>
<path d="M205.163 372.645L197.134 395.161C193.491 405.379 183.59 413.282 172.748 412.843C148.899 412.996 126.067 410.81 107.583 404.972C108.731 400.563 109.686 395.611 109.048 386.212C126.763 380.936 145.107 378.082 164.958 376.665L183.636 322.901L205.163 372.645Z" fill="#1F3C88"/>
<path d="M146.845 303.908L145.918 303.604C141.94 302.295 139.066 298.823 138.52 294.672L137.769 288.944L146.845 303.908Z" fill="#102048"/>
<path d="M137.77 288.944L136.289 296.524C135.754 299.27 133.877 301.561 131.294 302.631L127.648 304.139L137.77 288.944Z" fill="#102048"/>
<path d="M108.136 250.124C107.711 253.714 111.264 260.113 119.592 258.213C123.293 257.369 121.803 256.043 122.298 252.872C122.793 249.701 120.773 247.207 117.232 245.858C113.315 244.365 108.513 246.938 108.136 250.124Z" fill="#F9B384"/>
<path d="M111.151 251.164C113.669 249.96 116.725 251.116 117.773 253.711C118.011 254.304 118.984 254.045 118.743 253.445C117.441 250.219 113.792 248.79 110.644 250.297C110.061 250.576 110.571 251.443 111.151 251.164Z" fill="#102048"/>
<path d="M118.818 258.743C121.685 261.967 124.929 264.831 128.477 267.288C129.01 267.657 129.512 266.785 128.984 266.421C125.507 264.012 122.338 261.195 119.529 258.035C119.099 257.55 118.39 258.264 118.818 258.746V258.743Z" fill="#E28B6D"/>
<path d="M107.282 405.79C118.421 409.335 129.97 411.441 141.617 412.375C144.951 412.642 148.291 412.815 151.633 412.908C152.279 412.925 152.279 411.921 151.633 411.903C140.004 411.581 128.397 410.25 117.082 407.496C113.875 406.715 110.694 405.823 107.551 404.821C106.933 404.625 106.669 405.594 107.284 405.79H107.282Z" fill="#102048"/>
<path d="M112.473 401.434C114.149 401.992 115.823 402.55 117.499 403.11C118.114 403.316 118.378 402.344 117.765 402.14C116.089 401.582 114.415 401.025 112.739 400.464C112.124 400.258 111.86 401.231 112.473 401.434Z" fill="#102048"/>
<path d="M113.616 394.131C114.958 394.035 116.3 393.94 117.639 393.847C118.28 393.802 118.285 392.797 117.639 392.842C116.297 392.937 114.956 393.033 113.616 393.126C112.975 393.171 112.97 394.176 113.616 394.131Z" fill="#102048"/>
<path d="M115.282 387.918C117.406 387.83 119.529 387.742 121.652 387.654C122.295 387.626 122.3 386.621 121.652 386.649C119.529 386.737 117.406 386.825 115.282 386.913C114.639 386.94 114.634 387.945 115.282 387.918Z" fill="#102048"/>
<path d="M182.023 327.019C184.39 320.896 187.759 315.173 191.961 310.131C192.373 309.638 191.664 308.922 191.25 309.42C186.928 314.605 183.487 320.457 181.053 326.752C180.819 327.355 181.791 327.617 182.023 327.019Z" fill="#102048"/>
<path d="M74.8814 314.517C80.8845 317.477 85.8372 322.308 88.943 328.237C89.2421 328.81 90.1115 328.302 89.81 327.73C86.6338 321.662 81.5328 316.678 75.389 313.648C74.811 313.364 74.3009 314.228 74.8814 314.515V314.517Z" fill="#102048"/>
<path d="M90.8576 335.948C91.4003 341.867 91.9431 347.786 92.4859 353.705C92.5437 354.343 93.5513 354.351 93.491 353.705C92.9482 347.786 92.4055 341.867 91.8627 335.948C91.8049 335.31 90.7973 335.302 90.8576 335.948Z" fill="#102048"/>
<path d="M600.498 200.198H338.895V364.184H600.498V200.198Z" fill="white"/>
<path d="M600.498 200.198H338.895V230.447H600.498V200.198Z" fill="#C6EAE9"/>
<path d="M601 364.686H338.392V199.696H601V364.686ZM339.397 363.681H599.995V200.701H339.397V363.681Z" fill="#102048"/>
<path d="M577.849 222.729C573.763 222.729 570.441 219.405 570.441 215.323C570.441 211.24 573.766 207.914 577.849 207.914C581.933 207.914 585.259 211.238 585.259 215.323C585.259 219.408 581.935 222.729 577.849 222.729ZM577.849 208.919C574.319 208.919 571.447 211.79 571.447 215.323C571.447 218.855 574.319 221.724 577.849 221.724C581.38 221.724 584.254 218.853 584.254 215.323C584.254 211.793 581.382 208.919 577.849 208.919Z" fill="#102048"/>
<path d="M520.889 261.941L520.151 261.261C530.506 250.051 534.577 241.315 532.594 234.552C531.29 230.1 527.27 226.415 520.304 223.282C514.067 220.478 506.333 218.463 498.855 216.516C497.086 216.056 495.254 215.579 493.502 215.106L493.764 214.137C495.51 214.609 497.34 215.084 499.106 215.544C514.522 219.558 530.461 223.709 533.559 234.271C535.65 241.401 531.506 250.453 520.889 261.944V261.941Z" fill="#102048"/>
<path d="M428.104 247.091C425.458 241.948 425.046 236.675 426.88 231.417C428.4 227.06 432.393 220.327 442.781 212.991C448.968 208.622 454.589 206.065 454.647 206.04L455.061 206.957C454.84 207.057 432.944 217.094 427.83 231.753C426.091 236.74 426.486 241.745 429.001 246.634L428.106 247.094L428.104 247.091Z" fill="#102048"/>
<path d="M438.268 250.377C425.034 239.323 432.909 221.568 456.192 205.155C438.771 188.071 450.162 166.759 478.556 168.392C502.094 169.817 519.012 188.365 498.03 214.117C527.684 224.761 538.11 255.236 519.181 260.427L438.268 250.377Z" fill="#102048"/>
<path d="M511.866 333.332C511.142 340.779 508.569 355.401 507.197 364.812H430.295C427.657 348.627 422.862 321.223 421.093 302.461C420.068 291.567 419.706 280.573 420.681 270.313L512.308 271.649C512.931 279.347 513.283 286.713 513.424 293.788C513.695 308.128 513.052 321.243 511.866 333.332Z" fill="#708CD5"/>
<path d="M510.972 340.655C496.9 325.75 500.92 283.708 500.92 283.708L513.424 293.788C513.695 308.128 512.813 329.099 510.972 340.655Z" fill="#1F3C88"/>
<path d="M569.899 289.002L569.866 289.276L564.444 331.684C562.262 338.794 559.453 344.65 555.804 348.868C555.767 348.921 555.722 348.974 555.674 349.029C549.276 356.35 539.17 357.197 531.581 352.933C527.747 350.79 524.558 347.343 522.811 342.758L508.604 305.5L519.552 289.444L539.112 292.082L541.906 302.008L553.721 283.083L554.611 281.661L569.896 288.999L569.899 289.002Z" fill="#F9B384"/>
<path d="M556.259 269.843C558.312 265.499 562.361 249.078 562.705 245.75C562.785 244.983 563.122 244.539 563.552 244.29C564.63 243.662 566.002 244.411 566.177 245.579C566.74 249.355 565.936 254.786 565.009 260.369C569.251 253.897 570.934 241.18 574.565 241.823C575.415 241.974 575.952 242.805 575.977 243.667C576.146 249.428 570.603 262.075 570.603 262.075L571.577 262.416C576.153 256.073 580.35 242.941 582.898 246.104C585.277 250.473 576.206 264.552 576.206 264.552L577.148 265.381C580.485 260.437 583.549 254.776 585.802 256.294C587.584 257.492 580.282 271.217 580.282 271.217C579.347 283.244 570.012 289.311 570.012 289.311L554.458 285.095L550.078 272.735L545.015 259.444C545.015 259.444 546.394 256.867 549.402 258.462C552.41 260.057 556.259 269.848 556.259 269.848V269.843Z" fill="#F9B384"/>
<path d="M542.575 301.056C537.928 307.473 534.787 314.929 533.441 322.735C533.332 323.368 534.3 323.64 534.411 323.001C535.742 315.268 538.841 307.917 543.442 301.561C543.821 301.036 542.949 300.534 542.575 301.054V301.056Z" fill="#E28B6D"/>
<path d="M557.792 271.333C561.514 272.255 564.443 275.588 564.808 279.42C564.868 280.058 565.873 280.065 565.813 279.42C565.408 275.149 562.242 271.4 558.061 270.365C557.433 270.209 557.166 271.179 557.795 271.335L557.792 271.333Z" fill="#E28B6D"/>
<path d="M565.112 261.313C569.598 261.348 573.965 263.067 577.264 266.109C577.739 266.546 578.453 265.838 577.975 265.398C574.482 262.178 569.866 260.346 565.115 260.308C564.469 260.303 564.466 261.308 565.115 261.313H565.112Z" fill="#E28B6D"/>
<path opacity="0.4" d="M555.825 348.871C555.787 348.924 555.742 348.976 555.694 349.032C549.297 356.353 539.19 357.199 531.602 352.936C533.009 348.205 537.873 344.517 543.889 344.102C548.802 343.763 553.247 345.695 555.825 348.871Z" fill="#FC8879"/>
<path d="M539.115 292.08L508.629 305.486L500.92 283.709L426.873 283.035L421.264 302.199L421.184 302.471L416.409 301.958L389.683 299.114L394.276 283.819C406.438 250.546 418.389 245.843 440.391 240.959L444.08 240.135L462.052 236.145L480.817 236.477L500.086 242.627L505.272 244.285C520.067 249.008 531.355 261.047 535.124 276.111L539.115 292.08Z" fill="#708CD5"/>
<path d="M421.093 302.461L416.409 301.958C415.997 293.768 417.384 283.266 420.681 270.313C419.706 280.573 420.068 291.567 421.093 302.461Z" fill="#1F3C88"/>
<path d="M500.086 242.627C490.718 257.992 470.541 266.876 459.097 265.881C443.319 264.509 442.483 250.284 444.081 240.135L462.052 236.145L480.818 236.477L500.086 242.627Z" fill="#F9B384"/>
<path d="M491.201 248.536L448.825 250.546C450.664 247.913 452.373 244.918 453.921 241.34C455.84 236.878 457.489 231.502 458.705 224.749L472.656 220.317L488.185 215.373C486.808 227.05 489.2 244.486 491.201 248.536Z" fill="#F9B384"/>
<path d="M472.947 227.01C472.947 227.01 466.113 237.522 453.92 241.34C455.84 236.878 457.489 231.502 458.705 224.749L472.656 220.317L472.947 227.01Z" fill="#E28B6D"/>
<path d="M450.83 250.212C450.759 250.212 450.689 250.197 450.621 250.166C450.367 250.051 450.257 249.754 450.372 249.501C453.448 242.737 456.009 234.819 457.582 227.204C457.637 226.932 457.903 226.759 458.175 226.814C458.446 226.869 458.622 227.136 458.564 227.407C456.974 235.092 454.388 243.087 451.285 249.915C451.202 250.101 451.018 250.209 450.827 250.209L450.83 250.212Z" fill="#E28B6D"/>
<path d="M495.895 198.46L488.185 218.719L472.948 227.01C463.148 230.447 457.76 228.839 454.574 226.578C453.067 225.503 451.8 224.146 451.016 222.568C449.438 219.383 448.996 216.167 449.498 213.041C449.991 209.886 451.448 206.821 453.67 204.007C454.805 202.53 456.162 201.123 457.7 199.796L455.187 188.069L459.881 180.371L479.31 177.185L495.895 198.46Z" fill="#F9B384"/>
<path d="M493.716 208.004C483.263 203.04 475.792 194.772 475.289 182.881C466.776 181.745 460.534 185.556 455.858 192.762L453.679 194.897L453.177 185.35L459.584 176.934L481.948 173.542L498.03 192.008L500.292 205.826L493.716 208.004Z" fill="#102048"/>
<path d="M500.166 212.609C500.041 216.127 495.769 221.779 488.231 218.765C484.881 217.426 486.472 216.36 486.472 213.237C486.472 210.115 488.731 208.002 492.251 207.208C496.146 206.329 500.277 209.489 500.166 212.609Z" fill="#F9B384"/>
<path d="M490.932 215.938C490.705 215.938 490.502 215.785 490.444 215.559C490.087 214.132 490.547 212.71 491.678 211.755C493.052 210.592 495.055 210.411 497.038 211.273C497.292 211.383 497.41 211.68 497.299 211.934C497.189 212.187 496.892 212.305 496.638 212.195C495.017 211.489 493.404 211.612 492.329 212.524C491.5 213.227 491.16 214.273 491.422 215.318C491.49 215.587 491.326 215.86 491.057 215.928C491.017 215.938 490.974 215.943 490.934 215.943L490.932 215.938Z" fill="#102048"/>
<path d="M464.399 200.608C464.63 202.236 462.68 203.04 461.494 203.55C460.341 204.047 459.119 204.655 458.531 205.834C457.273 208.359 459.388 210.808 461.585 211.798C462.17 212.062 462.68 211.195 462.092 210.931C460.946 210.414 459.793 209.622 459.363 208.379C458.891 207.009 459.449 205.798 460.655 205.072C461.755 204.409 463.042 204.113 464.065 203.311C464.994 202.583 465.535 201.525 465.369 200.339C465.278 199.701 464.311 199.972 464.399 200.605V200.608Z" fill="#102048"/>
<path d="M460.582 215.936C463.027 216.586 465.595 216.013 467.562 214.441C468.067 214.036 467.351 213.33 466.851 213.73C465.17 215.074 462.921 215.519 460.848 214.966C460.223 214.8 459.956 215.77 460.582 215.936Z" fill="#102048"/>
<path d="M472.694 202.558C472.35 203.645 471.443 204.329 470.671 204.085C469.9 203.841 469.553 202.761 469.897 201.673C470.241 200.585 471.146 199.902 471.92 200.146C472.691 200.389 473.038 201.47 472.694 202.558Z" fill="#102048"/>
<path d="M462.201 200.407C461.769 201.424 460.834 202 460.11 201.693C459.389 201.387 459.153 200.314 459.585 199.296C460.017 198.279 460.952 197.704 461.676 198.01C462.397 198.317 462.633 199.389 462.201 200.407Z" fill="#102048"/>
<path d="M463.738 195.184C463.746 195.601 462.728 195.96 461.459 195.985C460.193 196.013 459.235 196.139 459.15 195.279C459.049 194.267 460.16 194.503 461.429 194.478C462.695 194.45 463.731 194.767 463.738 195.184Z" fill="#102048"/>
<path d="M470.4 196.339C470.174 196.787 471.031 197.52 472.312 197.975C473.594 198.43 474.508 198.89 475.041 197.99C475.669 196.93 474.41 196.809 473.129 196.355C471.847 195.897 470.626 195.892 470.4 196.339Z" fill="#102048"/>
<path opacity="0.4" d="M480.581 211.94C481.213 209.262 479.554 206.579 476.876 205.947C474.197 205.315 471.514 206.974 470.881 209.651C470.249 212.329 471.908 215.013 474.586 215.645C477.265 216.277 479.949 214.618 480.581 211.94Z" fill="#FC8879"/>
<path opacity="0.4" d="M456.443 208.469C456.443 211.212 454.212 213.443 451.458 213.443C450.765 213.443 450.101 213.303 449.498 213.041C449.991 209.886 451.448 206.821 453.669 204.007C455.318 204.811 456.443 206.509 456.443 208.469Z" fill="#FC8879"/>
<path d="M443.194 269.376C445.888 273.227 450.222 275.491 454.786 276.297C460.115 277.239 465.488 276.174 470.516 274.352C473.679 273.207 476.737 271.785 479.783 270.36C480.368 270.087 479.858 269.22 479.275 269.494C470.252 273.714 459.53 278.445 449.76 273.641C447.503 272.531 445.508 270.938 444.061 268.871C443.694 268.345 442.822 268.845 443.194 269.378V269.376Z" fill="#1F3C88"/>
<path d="M518.18 253.445C510.539 255.033 504.011 260.602 501.164 267.853C500.927 268.456 501.9 268.717 502.134 268.119C504.852 261.19 511.172 255.924 518.449 254.412C519.082 254.281 518.814 253.312 518.183 253.442L518.18 253.445Z" fill="#1F3C88"/>
<path d="M518.776 255.344C515.1 257.027 512.012 259.829 509.954 263.308C509.625 263.866 510.491 264.373 510.821 263.816C512.796 260.472 515.751 257.826 519.281 256.211C519.869 255.942 519.359 255.075 518.774 255.344H518.776Z" fill="#1F3C88"/>
<path d="M535.642 289.994C531.418 290.758 527.352 292.22 523.603 294.308C523.038 294.622 523.545 295.491 524.111 295.175C527.787 293.127 531.767 291.71 535.908 290.964C536.544 290.848 536.275 289.881 535.642 289.994Z" fill="#1F3C88"/>
<path d="M393.42 296.31C397.948 296.943 402.476 297.574 407.004 298.207C407.638 298.295 407.911 297.328 407.271 297.237C402.743 296.604 398.215 295.974 393.686 295.341C393.053 295.253 392.779 296.22 393.42 296.31Z" fill="#1F3C88"/>
<path d="M446.239 319.959C452.036 331.483 463.09 339.852 475.78 342.233C479.536 342.939 483.373 343.138 487.183 342.809C487.821 342.753 487.829 341.748 487.183 341.804C474.244 342.924 461.354 337.759 452.818 327.971C450.561 325.386 448.649 322.517 447.106 319.452C446.815 318.874 445.948 319.381 446.239 319.959Z" fill="#1F3C88"/>
<path d="M473.312 330.129C476.395 334.016 480.252 337.244 484.617 339.6C485.188 339.907 485.695 339.04 485.125 338.734C480.828 336.412 477.056 333.244 474.023 329.418C473.621 328.91 472.915 329.627 473.312 330.129Z" fill="#1F3C88"/>
<path d="M436.693 256.123C437.344 259.171 438.309 262.452 440.178 264.994C440.558 265.509 441.43 265.009 441.045 264.487C439.221 262.007 438.299 258.829 437.663 255.854C437.527 255.221 436.56 255.49 436.693 256.121V256.123Z" fill="#1F3C88"/>
<path d="M500.166 364.726L456.574 365.108L411.344 364.726C402.941 364.294 396.066 362.133 391.241 358.335C385.562 353.883 382.688 347.15 383.431 338.256C383.512 337.302 383.632 336.327 383.793 335.322L389.683 299.114L421.184 302.47L414.148 336.297C438.1 343 450.162 346.517 456.775 350.034H482.828L500.166 364.726Z" fill="#F9B384"/>
<path d="M421.264 302.199L418.832 313.776C417.455 310.57 416.64 306.641 416.409 301.958L421.184 302.471L421.264 302.199Z" fill="#E28B6D"/>
<path opacity="0.4" d="M395.945 349.652C395.945 353.129 394.126 356.235 391.241 358.335C385.562 353.883 382.688 347.15 383.431 338.256C390.427 338.678 395.945 343.613 395.945 349.652Z" fill="#FC8879"/>
<path d="M450.973 354.25C452.903 353.089 454.833 351.926 456.76 350.765C457.313 350.431 456.808 349.562 456.252 349.899C454.322 351.059 452.393 352.223 450.465 353.383C449.912 353.717 450.417 354.587 450.973 354.25Z" fill="#E28B6D"/>
<path d="M490.387 363.832C487.376 361.322 484.363 358.815 481.353 356.305C480.861 355.893 480.144 356.602 480.642 357.016C483.652 359.526 486.665 362.033 489.676 364.543C490.168 364.955 490.884 364.247 490.387 363.832Z" fill="#E28B6D"/>
<path d="M475.307 360.94C477.094 362.224 478.883 363.508 480.669 364.792C481.194 365.168 481.697 364.299 481.177 363.925C479.39 362.641 477.601 361.357 475.814 360.073C475.289 359.697 474.787 360.566 475.307 360.94Z" fill="#E28B6D"/>
<path d="M479.227 225.606C482.612 224.088 485.668 221.943 488.334 219.373C488.801 218.923 488.09 218.212 487.623 218.662C485.014 221.176 482.029 223.254 478.72 224.739C478.132 225.003 478.642 225.869 479.227 225.606Z" fill="#E28B6D"/>
<path d="M542.633 199.797H541.627V197.508H542.633V199.797ZM542.633 191.611H541.627V185.715H542.633V191.611ZM542.633 179.818H541.627V173.922H542.633V179.818ZM542.633 168.026H541.627V162.129H542.633V168.026ZM542.633 156.233H541.627V150.336H542.633V156.233ZM542.633 144.44H541.627V138.543H542.633V144.44ZM536.275 139.003H530.378V137.998H536.275V139.003ZM524.48 139.003H518.583V137.998H524.48V139.003ZM512.685 139.003H506.787V137.998H512.685V139.003ZM500.89 139.003H494.992V137.998H500.89V139.003ZM489.092 139.003H483.195V137.998H489.092V139.003ZM477.297 139.003H471.4V137.998H477.297V139.003ZM465.502 139.003H459.605V137.998H465.502V139.003ZM453.707 139.003H447.809V137.998H453.707V139.003ZM441.912 139.003H436.014V137.998H441.912V139.003ZM430.114 139.003H424.217V137.998H430.114V139.003ZM418.319 139.003H412.422V137.998H418.319V139.003ZM406.524 139.003H400.627V137.998H406.524V139.003ZM394.729 139.003H388.831V137.998H394.729V139.003ZM382.934 139.003H377.036V137.998H382.934V139.003ZM371.139 139.003H365.241V137.998H371.139V139.003Z" fill="#102048"/>
<path d="M566.587 55.9224H431.901V149.047H566.587V55.9224Z" fill="#D3DFFF"/>
<path d="M462.306 94.9241H451.752V136.737H462.306V94.9241Z" fill="#708CD5"/>
<path d="M483.413 108.428H472.859V136.737H483.413V108.428Z" fill="#708CD5"/>
<path d="M504.521 100.084H493.967V136.737H504.521V100.084Z" fill="#708CD5"/>
<path d="M525.628 83.6211H515.074V136.737H525.628V83.6211Z" fill="#708CD5"/>
<path d="M546.736 70.7151H536.182V136.737H546.736V70.7151Z" fill="#708CD5"/>
<path d="M63.6923 300.29H57.7947V299.285H63.6923V300.29ZM51.8972 300.29H45.9996V299.285H51.8972V300.29ZM42.5847 297.805H41.5796V291.909H42.5847V297.805ZM42.5847 286.01H41.5796V280.114H42.5847V286.01ZM42.5847 274.217H41.5796V268.321H42.5847V274.217ZM42.5847 262.424H41.5796V256.528H42.5847V262.424ZM42.5847 250.631H41.5796V244.735H42.5847V250.631ZM42.5847 238.838H41.5796V232.942H42.5847V238.838ZM42.5847 227.046H41.5796V221.149H42.5847V227.046ZM42.5847 215.25H41.5796V209.354H42.5847V215.25ZM42.5847 203.457H41.5796V197.561H42.5847V203.457ZM42.5847 191.664H41.5796V185.768H42.5847V191.664ZM42.5847 179.871H41.5796V173.975H42.5847V179.871ZM42.5847 168.078H41.5796V162.182H42.5847V168.078ZM42.5847 156.286H41.5796V150.389H42.5847V156.286ZM42.5847 144.493H41.5796V138.596H42.5847V144.493ZM131.035 137.501H128.955V136.496H131.035V137.501ZM123.057 137.501H117.16V136.496H123.057V137.501ZM111.262 137.501H105.365V136.496H111.262V137.501ZM99.4671 137.501H93.5695V136.496H99.4671V137.501ZM87.672 137.501H81.7744V136.496H87.672V137.501ZM75.8769 137.501H69.9793V136.496H75.8769V137.501ZM64.0818 137.501H58.1842V136.496H64.0818V137.501ZM52.2866 137.501H46.3891V136.496H52.2866V137.501Z" fill="#102048"/>
<path d="M92.9461 55.9224H0V175.783H92.9461V55.9224Z" fill="#708CD5"/>
<path d="M25.3918 82.9399H11.0688V97.2603H25.3918V82.9399Z" fill="#EDF2FF"/>
<path d="M60.7468 82.9399H34.8574V88.3339H60.7468V82.9399Z" fill="#D3DFFF"/>
<path d="M82.3771 91.8062H34.8574V97.2001H82.3771V91.8062Z" fill="#EDF2FF"/>
<path d="M16.9763 94.9365L14.1494 90.2585L14.9812 89.756L16.9713 93.0497L21.9391 84.7339L22.7734 85.2313L16.9763 94.9365Z" fill="#102048"/>
<path d="M25.3918 110.407H11.0688V124.728H25.3918V110.407Z" fill="#EDF2FF"/>
<path d="M82.3771 110.407H34.8574V115.801H82.3771V110.407Z" fill="#D3DFFF"/>
<path d="M65.9735 119.273H34.8574V124.667H65.9735V119.273Z" fill="#EDF2FF"/>
<path d="M25.3918 137.875H11.0688V152.195H25.3918V137.875Z" fill="#EDF2FF"/>
<path d="M79.3768 137.875H34.8574V143.269H79.3768V137.875Z" fill="#D3DFFF"/>
<path d="M60.6011 146.741H34.8574V152.135H60.6011V146.741Z" fill="#EDF2FF"/>
<path d="M17.5847 122.73L14.7578 118.052L15.5896 117.55L17.5797 120.846L22.5475 112.528L23.3792 113.025L17.5847 122.73Z" fill="#102048"/>
<path d="M17.4587 150.366L14.6318 145.688L15.4636 145.186L17.4537 148.482L22.4215 140.164L23.2533 140.661L17.4587 150.366Z" fill="#102048"/>
<path d="M56.7974 215.082H27.1714C25.4339 215.082 24.0254 216.49 24.0254 218.227V235.547C24.0254 237.284 25.4339 238.692 27.1714 238.692H56.7974C58.5349 238.692 59.9434 237.284 59.9434 235.547V218.227C59.9434 216.49 58.5349 215.082 56.7974 215.082Z" fill="white"/>
<path d="M56.797 239.195H27.1711C25.1583 239.195 23.5225 237.559 23.5225 235.547V218.229C23.5225 216.217 25.1608 214.582 27.1711 214.582H56.7945C58.8073 214.582 60.4431 216.217 60.4431 218.229V235.547C60.4431 237.559 58.8073 239.195 56.7945 239.195H56.797ZM27.1736 215.584C25.7161 215.584 24.5301 216.77 24.5301 218.227V235.544C24.5301 237.002 25.7161 238.187 27.1736 238.187H56.797C58.2544 238.187 59.4405 237.002 59.4405 235.544V218.227C59.4405 216.77 58.2544 215.584 56.797 215.584H27.1711H27.1736Z" fill="#102048"/>
<path d="M41.9842 229.475C41.3334 229.475 40.6826 229.249 40.1273 228.794L24.6333 216.509L25.1811 215.818L40.6801 228.108C41.4741 228.756 42.4918 228.756 43.2808 228.113L58.8376 215.755L59.3879 216.446L43.8362 228.801C43.2833 229.251 42.635 229.477 41.9867 229.477L41.9842 229.475Z" fill="#102048"/>
<path d="M359.66 311.322H240.182V391.573H359.66V311.322Z" fill="#F5C7BE"/>
<path opacity="0.2" d="M281.133 321.225H252.655V345.344H281.133V321.225Z" fill="#6F3428"/>
<path opacity="0.2" d="M346.358 321.225H293.865V345.344H346.358V321.225Z" fill="#6F3428"/>
<path opacity="0.2" d="M346.262 352.044H252.655V359.079H346.262V352.044Z" fill="#6F3428"/>
<path opacity="0.15" d="M312.965 362.764H252.655V369.799H312.965V362.764Z" fill="#6F3428"/>
<path opacity="0.15" d="M302.245 373.482H252.655V380.516H302.245V373.482Z" fill="#6F3428"/>
<path d="M435.587 412.825H432.142V411.82H434.582V409.368H435.587V412.825ZM426.245 412.825H420.347V411.82H426.245V412.825ZM414.45 412.825H408.552V411.82H414.45V412.825ZM402.655 412.825H396.757V411.82H402.655V412.825ZM390.859 412.825H384.962V411.82H390.859V412.825ZM379.062 412.825H373.164V411.82H379.062V412.825ZM367.267 412.825H361.369V411.82H367.267V412.825ZM355.472 412.825H349.574V411.82H355.472V412.825ZM343.677 412.825H337.779V411.82H343.677V412.825ZM331.881 412.825H325.984V411.82H331.881V412.825ZM320.086 412.825H314.189V411.82H320.086V412.825ZM308.291 412.825H307.939V411.82H308.291V412.825ZM435.597 403.472H434.592V397.575H435.597V403.472ZM435.597 391.679H434.592V387.845H437.66V388.85H435.597V391.679ZM567.268 388.85H561.522V387.845H566.263V387.694H567.268V388.85ZM555.624 388.85H549.727V387.845H555.624V388.85ZM543.829 388.85H537.931V387.845H543.829V388.85ZM532.034 388.85H526.136V387.845H532.034V388.85ZM520.239 388.85H514.341V387.845H520.239V388.85ZM508.444 388.85H502.546V387.845H508.444V388.85ZM496.649 388.85H490.751V387.845H496.649V388.85ZM484.851 388.85H478.953V387.845H484.851V388.85ZM473.056 388.85H467.158V387.845H473.056V388.85ZM461.261 388.85H455.363V387.845H461.261V388.85ZM449.466 388.85H443.568V387.845H449.466V388.85ZM567.276 381.798H566.271V375.901H567.276V381.798ZM567.276 370.005H566.271V364.108H567.276V370.005Z" fill="#102048"/>
<path d="M435.095 393.485C437.855 393.485 440.093 391.248 440.093 388.488C440.093 385.728 437.855 383.491 435.095 383.491C432.334 383.491 430.097 385.728 430.097 388.488C430.097 391.248 432.334 393.485 435.095 393.485Z" fill="#102048"/>
</g>
<defs>
<clipPath id="clip0_1639_23759">
<rect width="582.494" height="366.002" fill="white" transform="translate(6.16846 33.0361)"/>
</clipPath>
<clipPath id="clip1_1639_23759">
<rect width="601" height="406.862" fill="white"/>
</clipPath>
</defs>
</svg>
