<svg width="156" height="159" viewBox="0 0 156 159" fill="none" xmlns="http://www.w3.org/2000/svg">
<path fill-rule="evenodd" clip-rule="evenodd" d="M89.518 15.173C104.649 17.4333 121.131 9.44459 133.564 18.2812C147.393 28.1094 154.11 45.0986 155.29 61.9187C156.56 80.0167 152.148 98.3752 140.145 112.076C127.305 126.734 109.107 137.17 89.518 136.998C70.0636 136.827 54.5767 123.71 39.7804 111.195C23.1191 97.1021 2.73756 83.5338 0.753655 61.9187C-1.3298 39.2191 9.51514 13.4833 29.8302 2.78487C48.4899 -7.04185 68.6221 12.0515 89.518 15.173Z" fill="#EEF7FF"/>
<path d="M54.5158 105.842L48.3642 131.214C48.2823 131.571 48.3452 131.945 48.5392 132.255C48.7331 132.564 49.0422 132.784 49.3985 132.866C49.7547 132.948 50.1289 132.885 50.4387 132.691C50.7485 132.497 50.9686 132.188 51.0505 131.832L57.1886 106.487C57.2741 106.133 57.2153 105.759 57.0252 105.448C56.835 105.137 56.529 104.914 56.1746 104.828C55.8201 104.743 55.4463 104.802 55.1352 104.992C54.8241 105.182 54.6013 105.488 54.5158 105.842Z" fill="#2979FF"/>
<path d="M99.4841 105.842C99.4417 105.666 99.3651 105.5 99.2585 105.353C99.1519 105.206 99.0174 105.082 98.8627 104.987C98.7081 104.892 98.5363 104.829 98.3571 104.801C98.178 104.772 97.995 104.779 97.8186 104.822C97.6422 104.864 97.4759 104.941 97.3291 105.047C97.1824 105.154 97.058 105.288 96.9632 105.443C96.8685 105.598 96.8051 105.769 96.7767 105.949C96.7483 106.128 96.7555 106.311 96.7978 106.487L109.235 157.661C109.321 158.017 109.544 158.325 109.857 158.516C110.169 158.707 110.545 158.767 110.901 158.681C111.257 158.596 111.565 158.372 111.756 158.06C111.947 157.748 112.007 157.372 111.922 157.016L99.4841 105.842Z" fill="#2979FF"/>
<path d="M66.6712 111.228C64.0655 138.091 64.7102 130.032 64.7102 131.55C64.6942 131.906 64.8203 132.254 65.0609 132.518C65.3014 132.781 65.6367 132.938 65.9929 132.954C66.3492 132.97 66.6972 132.844 66.9604 132.603C67.2236 132.362 67.3805 132.027 67.3965 131.671L69.3575 111.524C69.3769 111.348 69.3614 111.169 69.3118 110.999C69.2622 110.828 69.1796 110.669 69.0686 110.531C68.9576 110.392 68.8204 110.277 68.6649 110.192C68.5093 110.106 68.3385 110.052 68.1621 110.033C67.9857 110.014 67.8072 110.029 67.6369 110.079C67.4665 110.128 67.3075 110.211 67.1691 110.322C67.0306 110.433 66.9154 110.57 66.83 110.726C66.7446 110.881 66.6906 111.052 66.6712 111.228Z" fill="#FDC43F"/>
<path d="M85.0588 116.87L86.496 131.644C86.5316 132 86.7073 132.328 86.9844 132.555C87.2614 132.781 87.6172 132.889 87.9734 132.853C88.3297 132.817 88.6571 132.642 88.8838 132.365C89.1105 132.088 89.2179 131.732 89.1823 131.376L87.7451 116.601C87.7095 116.245 87.5338 115.917 87.2567 115.691C86.9797 115.464 86.6239 115.357 86.2677 115.392C85.9114 115.428 85.5839 115.603 85.3572 115.881C85.1306 116.158 85.0232 116.513 85.0588 116.87Z" fill="#1EC28B"/>
<path d="M117.2 54.951C116.561 45.2131 112.397 36.0412 105.488 29.1493C80.8951 4.55648 39.0295 20.8219 36.7999 54.951C37.0014 54.951 117.052 54.951 117.2 54.951ZM87.7451 22.9843C96.9582 25.8688 104.652 32.2877 109.141 40.8346C109.309 41.1552 109.342 41.5292 109.234 41.8743C109.125 42.2194 108.884 42.5073 108.564 42.6747C108.243 42.8421 107.869 42.8753 107.524 42.767C107.179 42.6587 106.891 42.4178 106.724 42.0972C102.568 34.2025 95.4623 28.2693 86.9527 25.59C86.6071 25.4849 86.3175 25.2469 86.1475 24.9282C85.9775 24.6096 85.941 24.2365 86.0461 23.8909C86.1511 23.5454 86.3892 23.2558 86.7078 23.0857C87.0265 22.9157 87.3996 22.8792 87.7451 22.9843Z" fill="#CFD8DC"/>
<path d="M125.353 65.9244C125.304 63.7071 124.387 61.5974 122.8 60.048C121.213 58.4987 119.082 57.6332 116.864 57.6373H37.1357C34.9178 57.6332 32.7867 58.4987 31.1997 60.048C29.6127 61.5974 28.6962 63.7071 28.647 65.9244C31.7765 65.5483 122.25 65.5483 125.353 65.9244Z" fill="#CFD8DC"/>
<path d="M144.399 80.2288C141.829 76.5603 138.411 73.5673 134.435 71.5046C130.46 69.4419 126.044 68.3708 121.565 68.3824H32.3676C27.9 68.3816 23.4981 69.4579 19.535 71.5201C15.5719 73.5823 12.1644 76.5696 9.60137 80.2288C8.96169 81.1482 8.58577 82.2252 8.51433 83.3429C8.44289 84.4607 8.67866 85.5767 9.1961 86.5701C9.71354 87.5635 10.4929 88.3963 11.4498 88.9784C12.4067 89.5606 13.5047 89.8698 14.6247 89.8726H139.375C140.495 89.8698 141.593 89.5606 142.55 88.9784C143.507 88.3963 144.286 87.5635 144.804 86.5701C145.321 85.5767 145.557 84.4607 145.486 83.3429C145.414 82.2252 145.038 81.1482 144.399 80.2288Z" fill="#CFD8DC"/>
<path d="M39.8757 92.5588C62.709 110.382 91.1432 110.449 114.124 92.5588H39.8757Z" fill="#CFD8DC"/>
</svg>
