<?xml version="1.0" encoding="UTF-8"?>
<svg id="_圖層_1" data-name="圖層_1" xmlns="http://www.w3.org/2000/svg" version="1.1" viewBox="0 0 404.85 380.5">
  <!-- Generator: Adobe Illustrator 29.4.0, SVG Export Plug-In . SVG Version: 2.1.0 Build 152)  -->
  <defs>
    <style>
      .st0 {
        fill: #f7ac01;
      }
    </style>
  </defs>
  <path class="st0" d="M401.03,333.33L230.6,16.83c-12.08-22.44-44.26-22.44-56.35,0L3.83,333.33c-8.38,15.56-2.56,34.97,13.01,43.35,4.65,2.5,9.84,3.82,15.12,3.82h340.89c17.67,0,32-14.32,32-32,0-5.3-1.31-10.51-3.82-15.17ZM202.43,331.5c-11.05,0-20-8.95-20-20s8.95-20,20-20,20,8.95,20,20-8.95,20-20,20ZM224.15,130.35l-5.74,122c0,8.84-7.16,16-16,16s-16-7.16-16-16l-5.74-121.95h0c-.53-11.99,8.76-22.14,20.75-22.67.25-.01.5-.02.75-.02h.21c12.01,0,21.75,9.72,21.75,21.73,0,.32,0,.65-.02.97l.04-.06Z"/>
</svg>