<svg width="26" height="25" viewBox="0 0 26 25" fill="none" xmlns="http://www.w3.org/2000/svg">
<rect width="22.7303" height="22.7303" rx="6.36448" transform="matrix(1 0 -0.0989724 0.99509 3.15887 0)" fill="#2979FF"/>
<rect width="22.7303" height="22.7303" rx="7.27369" transform="matrix(1 0 -0.0989724 0.99509 3.15887 0)" fill="#2979FF"/>
<g clip-path="url(#clip0_213_281)">
<path d="M14.9442 10.7063C15.8815 10.7063 16.7166 9.95021 16.8094 9.01747C16.9021 8.08474 16.2175 7.32861 15.2801 7.32861C14.3428 7.32861 13.5077 8.08474 13.415 9.01747C13.3222 9.95021 14.0069 10.7063 14.9442 10.7063Z" fill="white"/>
<path d="M12.6876 9.01725C12.7127 8.76513 12.7762 8.52194 12.8709 8.29346H7.66804C7.26702 8.29346 6.90837 8.6182 6.86868 9.01725C6.82899 9.41631 7.12304 9.74105 7.52406 9.74105H12.7269C12.6776 9.51257 12.6626 9.26938 12.6876 9.01725Z" fill="white"/>
<path d="M18.821 8.29346H17.4974C17.5467 8.52194 17.5618 8.76513 17.5367 9.01725C17.5117 9.26938 17.4482 9.51257 17.3535 9.74105H18.677C19.078 9.74105 19.4367 9.41631 19.4764 9.01725C19.5161 8.6182 19.222 8.29346 18.821 8.29346Z" fill="white"/>
<path d="M12.5186 15.5918C13.456 15.5918 14.291 14.8357 14.3838 13.903C14.4766 12.9702 13.7919 12.2141 12.8546 12.2141C11.9172 12.2141 11.0822 12.9702 10.9894 13.903C10.8966 14.8357 11.5813 15.5918 12.5186 15.5918Z" fill="white"/>
<path d="M10.262 13.903C10.2871 13.6509 10.3506 13.4077 10.4453 13.1792H7.18208C6.78106 13.1792 6.42241 13.5039 6.38272 13.903C6.34303 14.3021 6.63708 14.6268 7.0381 14.6268H10.3013C10.252 14.3983 10.2369 14.1551 10.262 13.903Z" fill="white"/>
<path d="M18.335 13.1792H15.0718C15.1211 13.4077 15.1362 13.6509 15.1111 13.903C15.086 14.1551 15.0226 14.3983 14.9278 14.6268H18.191C18.5921 14.6268 18.9507 14.3021 18.9904 13.903C19.0301 13.5039 18.736 13.1792 18.335 13.1792Z" fill="white"/>
</g>
<path d="M0.684246 24.8806L1.94406 12.2141L8.63751 22.6187L0.684246 24.8806Z" fill="#2979FF"/>
<defs>
<clipPath id="clip0_213_281">
<rect width="12.729" height="9.09211" fill="white" transform="matrix(1 0 -0.0989724 0.99509 7.03003 6.78564)"/>
</clipPath>
</defs>
</svg>
